# xmcd CD database file
#
# Track frame offsets:
#	150
#	41557
#	76890
#	104057
#	129912
#	156645
#	195027
#	228810
#
# Disc length: 3256 seconds
#
# Revision: 0
# Processed by: cddbd v1.5.1PL2 Copyright (c) Steve Scherf et al.
# Submitted via: CDex 1.51
#
DISCID=5a0cb608
DTITLE=Takashima Hiroshi&The Soul Meeting - In My Soul
DYEAR=1992
DGENRE=Jazz
TTITLE0=Hip Walk
TTITLE1=This Could Be The Stat Of Something
TTITLE2=It's All In My soul
TTITLE3=Snap Shot
TTITLE4=In The Wee Small Hours Of The Morning
TTITLE5=Jingles
TTITLE6=Blues For Kids
TTITLE7=Nightingale Sang In Berkeley Square
EXTD=YEAR: 1992
EXTT0=
EXTT1=
EXTT2=
EXTT3=
EXTT4=
EXTT5=
EXTT6=
EXTT7=
PLAYORDER=
